<?xml version="1.0" encoding="utf-8"?>
<!-- Generator: Adobe Illustrator 27.4.0, SVG Export Plug-In . SVG Version: 6.00 Build 0)  -->
<svg version="1.1" id="Layer_1" xmlns="http://www.w3.org/2000/svg" xmlns:xlink="http://www.w3.org/1999/xlink" x="0px" y="0px"
	 viewBox="0 0 180.8 47.2" style="enable-background:new 0 0 180.8 47.2;" xml:space="preserve">
<style type="text/css">
	.st0{fill:#FFFFFF;}
	.st1{fill:#25316B;}
	.st2{fill:#EE131D;}
</style>
<g id="Layer_2_00000029759761437607167600000001595734135801885836_">
	<g id="Layer_1-2">
		<rect class="st0" width="180.8" height="47.2"/>
		<g>
			<path class="st1" d="M5.9,15.1c-0.9,0-1.9,0.1-2.8,0.1c-0.3,0-1.9-0.1-2.7-0.1c-0.4,0-0.4,0.1-0.4,0.2c0,0.1,0.1,0.2,0.3,0.2
				c0.2,0,0.2,0,0.4,0.1c0.4,0.1,0.6,0.5,0.7,1c0.1,0.7,0.1,2.1,0.1,4.4v3.6c0,2,0,4.5-0.1,5.3c-0.1,0.8-0.1,1-0.5,1.1
				c0,0-0.3,0.1-0.4,0.1c-0.2,0-0.4,0.1-0.4,0.2c0,0.1,0.1,0.2,0.4,0.2c0.6,0,2.4,0,2.5,0c0.1,0,0.6,0,1.3,0v-6.9v-0.2v-7.5
				c0-0.3,0.1-0.5,0.2-0.5c0.1,0,0.8,0,1.1,0c0.7,0,1.5,0.3,2,0.9c0.7,0.8,1,1.8,1,3.2c0,1.8-1.1,3.2-2.6,3.2
				c-0.3,0-0.4,0.1-0.4,0.2c0,0.1,0.1,0.2,0.2,0.2C5.8,24,6.1,24,6.2,24c2.6,0,5.2-1.7,5.2-4.8c0-1.4-0.6-2.3-1-2.7
				C9.7,15.7,8.4,15.1,5.9,15.1z"/>
			<path class="st1" d="M23.6,15.6H24c0,0,0.7,0,0.7,1v9.5l-11.1-11c0,0-0.4-0.1-0.4,0.3c0,0.4,0,16.2,0,16.2h3.4c0,0,0.4-0.2,0-0.5
				h-0.4c0,0-0.7,0-0.8-1.1v-9.5l11.1,11c0,0,0.4,0.1,0.5-0.1V15.1h-3.4C23.6,15.1,23.2,15.3,23.6,15.6z"/>
			<path class="st1" d="M34.2,15.1h-3.9v15.7c0,0,0.2,4-2.5,5.1c0,0-0.6,0.2-0.5,0.4c0.1,0.1,0.6,0.1,1.3-0.1c0.8-0.2,4.7-2,4.5-7.4
				V17c0,0-0.1-1.4,1-1.4C34.7,15.6,34.5,15.1,34.2,15.1z"/>
			<path class="st2" d="M46.7,19.4c-1.3-0.1-2.3,0.6-2.9,1.2c-0.6-0.6-1.5-1.3-2.9-1.3c-1,0-2,0.5-2.6,1.2c-0.5,0.5-1,1.5-0.8,2.9
				c0.3,2.4,2.6,4.9,5.8,6.3c0.1,0,0.2,0.1,0.3,0.1l0,0c0.1,0,0.2,0,0.3-0.1c3.3-1.2,5.7-3.6,6.1-6c0.2-1.4-0.3-2.4-0.7-2.9
				C48.7,20,47.8,19.5,46.7,19.4z"/>
			<path class="st1" d="M64.2,17.7c-1.3,0-2.2,0.7-2.2,1.8v2.8h-3.5v-2.8c0-1-0.9-1.8-2.1-1.8c-1.2,0-2.2,0.7-2.2,1.8v10.2
				c0,1,0.9,1.8,2.2,1.8c1.2,0,2.1-0.7,2.1-1.8v-3.3H62v3.3c0,1,0.9,1.8,2.2,1.8c1.3,0,2.2-0.7,2.2-1.8V19.5
				C66.3,18.5,65.4,17.7,64.2,17.7z"/>
			<path class="st1" d="M76.9,27.2h-5v-0.6h4.2c1.1,0,2-0.9,2-2.1c0-1-0.7-2-2-2H72v-0.6h4.9c1.3,0,2-1.1,2-2c0-1-0.7-2-2-2h-6.7
				c-1.6,0-2.5,0.9-2.5,2.4v8.7c0,1.5,0.9,2.4,2.5,2.4h6.8c1.3,0,2-1.1,2-2C79,28.2,78.2,27.2,76.9,27.2z"/>
			<path class="st1" d="M88.5,27.2h-3.8v-7.6c0-1-0.9-1.8-2.2-1.8c-1.3,0-2.2,0.8-2.2,1.8v9.3c0,1.5,0.9,2.4,2.5,2.4h5.7
				c0.6,0,1.1-0.2,1.5-0.7c0.3-0.4,0.5-0.9,0.5-1.4C90.5,28,89.6,27.2,88.5,27.2z"/>
			<path class="st1" d="M100,27.2h-3.8v-7.6c0-1-0.9-1.8-2.2-1.8c-1.3,0-2.2,0.8-2.2,1.8v9.3c0,1.5,0.9,2.4,2.5,2.4h5.7
				c1.1,0,2-0.9,2-2.1S101.2,27.2,100,27.2z"/>
			<path class="st1" d="M109.4,17.6c-4.1,0-7.2,3-7.2,7c0,4,3.1,7,7.2,7c4.1,0,7.2-3,7.2-7C116.6,20.6,113.5,17.6,109.4,17.6z
				 M109.4,27.5c-1.6,0-2.9-1.3-2.9-2.9c0-1.6,1.3-2.9,2.9-2.9c1.6,0,2.9,1.3,2.9,2.9C112.3,26.2,111,27.5,109.4,27.5z"/>
			<path class="st1" d="M129.4,24.2c1-0.8,3.3-2.7,3.3-2.7c0.6-0.5,0.8-1,0.8-1.6c0-0.5-0.2-0.9-0.5-1.3c-0.7-0.8-1.9-1.2-2.9-0.4
				c0,0-2.2,1.8-3.6,2.9v-1.6c0-1-0.9-1.8-2.1-1.8s-2.1,0.7-2.1,1.8v10.2c0,1,0.9,1.8,2.1,1.8s2.1-0.7,2.1-1.8v-2.4
				c1.5,1.3,4,3.6,4,3.6c0.5,0.5,1.2,0.7,1.9,0.4c0.8-0.2,1.4-1,1.6-1.8c0-0.1,0-0.3,0-0.4c0-0.5-0.2-1-0.6-1.4
				C133.4,27.7,130.4,25,129.4,24.2z"/>
			<path class="st1" d="M137.6,17.7c-1.3,0-2.2,0.8-2.2,1.8v10.2c0,1,0.9,1.8,2.2,1.8c1.3,0,2.2-0.7,2.2-1.8V19.5
				C139.8,18.5,138.9,17.7,137.6,17.7z"/>
			<path class="st1" d="M151.1,17.9h-8.2c-1.1,0-1.8,0.9-1.8,2.1c0,1.2,0.8,2.1,1.8,2.1h1.9v7.6c0,1,0.9,1.7,2.2,1.7
				c1.3,0,2.2-0.7,2.2-1.7v-7.6h1.9c1.1,0,1.8-0.9,1.8-2.1C152.9,18.8,152.2,17.9,151.1,17.9z"/>
			<path class="st1" d="M164.3,17.9h-8.2c-1.1,0-1.8,0.9-1.8,2.1c0,1.2,0.8,2.1,1.8,2.1h1.9v7.6c0,1,0.9,1.7,2.2,1.7
				c1.3,0,2.2-0.7,2.2-1.7v-7.6h1.9c1.1,0,1.8-0.9,1.8-2.1C166.1,18.8,165.4,17.9,164.3,17.9z"/>
			<path class="st1" d="M178.8,17.8c-0.8-0.1-1.5,0.2-1.9,0.8c0,0-2,2.6-2.8,3.7c-0.8-1.1-2.8-3.7-2.8-3.7c-0.8-1.1-2.2-1-3.1-0.3
				c-0.5,0.4-0.8,1-0.8,1.6c0,0.4,0.1,0.8,0.4,1.2c0,0,3.3,4.3,4.1,5.3v3.4c0,1,0.9,1.8,2.2,1.8c1.3,0,2.2-0.7,2.2-1.8v-3.4
				c0.3-0.4,4.1-5.3,4.1-5.3c0.3-0.4,0.4-0.8,0.4-1.2c0-0.2,0-0.5-0.1-0.7C180.4,18.4,179.7,17.9,178.8,17.8z"/>
		</g>
	</g>
</g>
</svg>
